IKResults
version=1
nRows=5
nColumns=63
inDegrees=yes

Units are S.I. units (second, meters, Newtons, ...)
If the header above contains a line with 'inDegrees', this indicates whether rotational values are in degrees (yes) or radians (no).

endheader
time	pelvis_tilt	pelvis_list	pelvis_rotation	pelvis_tx	pelvis_ty	pelvis_tz	hip_flexion_r	hip_adduction_r	hip_rotation_r	knee_angle_r	knee_angle_r_beta	ankle_angle_r	subtalar_angle_r	mtp_angle_r	hip_flexion_l	hip_adduction_l	hip_rotation_l	knee_angle_l	knee_angle_l_beta	ankle_angle_l	subtalar_angle_l	mtp_angle_l	L5_S1_Flex_Ext	L5_S1_Lat_Bending	L5_S1_axial_rotation	L4_L5_Flex_Ext	L4_L5_Lat_Bending	L4_L5_axial_rotation	L3_L4_Flex_Ext	L3_L4_Lat_Bending	L3_L4_axial_rotation	L2_L3_Flex_Ext	L2_L3_Lat_Bending	L2_L3_axial_rotation	L1_L2_Flex_Ext	L1_L2_Lat_Bending	L1_L2_axial_rotation	L1_T12_Flex_Ext	L1_T12_Lat_Bending	L1_T12_axial_rotation	Abs_r3	Abs_r2	Abs_r1	Abs_t1	Abs_t2	neck_flexion	neck_bending	neck_rotation	arm_flex_r	arm_add_r	arm_rot_r	elbow_flex_r	pro_sup_r	wrist_flex_r	wrist_dev_r	arm_flex_l	arm_add_l	arm_rot_l	elbow_flex_l	pro_sup_l	wrist_flex_l	wrist_dev_l
      4.03333333	    -23.88119900	    -12.18347360	      2.34481517	     -0.77444882	      0.91162620	     -0.24063390	     38.14255653	      5.34388522	    -10.19345351	      8.20945772	      0.14328207	     10.62839404	    -17.29000090	      0.00000000	     22.73653714	    -10.23755492	     -2.15673979	     18.35353824	      0.32032967	     15.03122762	     -5.76567214	      0.00000000	      3.23966818	      1.04496498	      0.06455331	      6.01638777	      1.38980343	      0.06858789	      5.32245085	      2.54072786	      0.06858789	      3.70261676	      2.54072786	      0.05648414	      3.00835587	      2.13089260	      0.05244956	      1.85114640	      1.61865076	      0.04841498	     23.14062583	     11.82085290	      0.35902613	      0.00000000	      0.00000000	      9.78846445	     -3.97486067	    -15.32633161	    -15.09343631	    -13.35860205	     -2.87253517	     31.55011389	     89.99559364	      0.00000000	      0.00000000	    -11.35041818	     -8.57454348	     -2.83646126	     31.18045888	     89.99559364	      0.00000000	      0.00000000
      4.06666667	    -23.84337816	    -11.48392884	      0.59826697	     -0.79080335	      0.91215985	     -0.24018431	     38.93783578	      5.22482241	     -9.59786454	     11.73905421	      0.20488515	     13.44899941	    -16.15071438	      0.00000000	     23.23447233	     -9.92905378	     -3.66906672	     18.35434669	      0.32034378	     15.15772790	     -6.53726751	      0.00000000	      3.17315006	      1.04084213	      0.18793110	      5.89285697	      1.38432004	      0.19967679	      5.21316823	      2.53070356	      0.19967679	      3.62659320	      2.53070356	      0.16443971	      2.94658714	      2.12248528	      0.15269402	      1.81313794	      1.61226446	      0.14094832	     22.66549355	     11.77421438	      1.04521639	      0.00000000	      0.00000000	     10.23513618	     -3.93459380	    -13.45164390	    -16.66075075	    -13.41159382	     -2.54524118	     32.23381749	     89.99559364	      0.00000000	      0.00000000	     -9.53876723	     -8.40703142	     -3.66117059	     32.38218323	     89.99559364	      0.00000000	      0.00000000
      4.10000000	    -23.47129086	    -10.76694468	     -0.84874996	     -0.80563631	      0.91306025	     -0.23948883	     39.06917457	      4.94262981	     -8.85948630	     15.73151886	      0.27456680	     16.00944463	    -15.30872219	      0.00000000	     23.36449552	     -9.58760496	     -4.83852636	     18.26189849	      0.31873026	     15.38400000	     -7.26886359	      0.00000000	      3.07351975	      1.03129715	      0.25128422	      5.70783352	      1.37162521	      0.26698949	      5.04948559	      2.50749589	      0.26698949	      3.51272572	      2.50749589	      0.21987369	      2.85407044	      2.10302114	      0.20416843	      1.75620918	      1.59747928	      0.18846317	     21.95384420	     11.66623960	      1.39756746	      0.00000000	      0.00000000	     10.49874255	     -4.15570122	    -11.56463449	    -18.20256254	    -13.53951961	     -2.26868488	     33.28735348	     89.99559364	      0.00000000	      0.00000000	     -7.98495796	     -8.33009860	     -4.11532038	     33.96325653	     89.99559364	      0.00000000	      0.00000000
      4.13333333	    -20.70811394	     -9.45797296	     -2.07069771	     -0.82090532	      0.91670263	     -0.23824607	     36.78995973	      3.81339787	     -8.79863978	     20.70607353	      0.36138916	     19.55348008	    -11.78510192	      0.00000000	     20.99846910	     -8.61188911	     -6.06011700	     18.02400574	      0.31457824	     15.44847429	     -8.82684815	      0.00000000	      2.51871299	      0.94096555	      0.34075171	      4.67750189	      1.25148418	      0.36204869	      4.13799356	      2.28786363	      0.36204869	      2.87863707	      2.28786363	      0.29815774	      2.33887688	      1.91881694	      0.27686076	      1.43919260	      1.45755563	      0.25556378	     17.99091499	     10.64439044	      1.89515877	      0.00000000	      0.00000000	     12.07107724	     -3.49609885	     -9.85493995	    -17.90502427	    -13.45983766	     -1.53938174	     33.14945183	     89.99559364	      0.00000000	      0.00000000	     -5.55259672	     -8.50436002	     -4.67214703	     35.58438366	     89.99559364	      0.00000000	      0.00000000
      4.16666667	    -17.88755623	     -8.24169212	     -3.09220526	     -0.83478419	      0.92066906	     -0.23587928	     33.75959099	      3.10073487	     -5.67334077	     25.03984667	      0.43702777	     20.79449724	    -12.92393471	      0.00000000	     18.57280233	     -7.66276479	     -7.16525364	     17.67044866	      0.30840751	     15.48170153	     -9.93925149	      0.00000000	      1.98490427	      0.83441407	      0.37724609	      3.68616572	      1.10977072	      0.40082397	      3.26099923	      2.02879438	      0.40082397	      2.26854709	      2.02879438	      0.33009033	      1.84318211	      1.70153718	      0.30651245	      1.13417430	      1.29250740	      0.28293457	     14.17797272	      9.43905889	      2.09812958	      0.00000000	      0.00000000	     13.53475764	     -2.93798302	     -8.16123346	    -17.45112495	    -13.31570961	     -0.56806976	     32.80443967	     89.99559364	      0.00000000	      0.00000000	     -3.49683250	     -8.94547141	     -4.80752925	     37.59153004	     89.99559364	      0.00000000	      0.00000000
